  0
SECTION
  2
HEADER
  9
$ACADVER
  1
AC1012
  9
$DWGCODEPAGE
  3
gb2312
  9
$INSBASE
 10
0.0
 20
0.0
 30
0.0
  9
$EXTMIN
 10
1.000000000000000E+20
 20
1.000000000000000E+20
 30
1.000000000000000E+20
  9
$EXTMAX
 10
-1.000000000000000E+20
 20
-1.000000000000000E+20
 30
-1.000000000000000E+20
  9
$LIMMIN
 10
0.0
 20
0.0
  9
$LIMMAX
 10
420.0
 20
297.0
  9
$ORTHOMODE
 70
     0
  9
$REGENMODE
 70
     1
  9
$FILLMODE
 70
     1
  9
$QTEXTMODE
 70
     0
  9
$MIRRTEXT
 70
     1
  9
$DRAGMODE
 70
     2
  9
$LTSCALE
 40
1.0
  9
$OSMODE
 70
    37
  9
$ATTMODE
 70
     1
  9
$TEXTSIZE
 40
2.5
  9
$TRACEWID
 40
1.0
  9
$TEXTSTYLE
  7
STANDARD
  9
$CLAYER
  8
0
  9
$CELTYPE
  6
BYLAYER
  9
$CECOLOR
 62
   256
  9
$CELTSCALE
 40
1.0
  9
$DELOBJ
 70
     1
  9
$DISPSILH
 70
     0
  9
$DIMSCALE
 40
1.0
  9
$DIMASZ
 40
2.5
  9
$DIMEXO
 40
0.625
  9
$DIMDLI
 40
3.75
  9
$DIMRND
 40
0.0
  9
$DIMDLE
 40
0.0
  9
$DIMEXE
 40
1.25
  9
$DIMTP
 40
0.0
  9
$DIMTM
 40
0.0
  9
$DIMTXT
 40
2.5
  9
$DIMCEN
 40
2.5
  9
$DIMTSZ
 40
0.0
  9
$DIMTOL
 70
     0
  9
$DIMLIM
 70
     0
  9
$DIMTIH
 70
     0
  9
$DIMTOH
 70
     0
  9
$DIMSE1
 70
     0
  9
$DIMSE2
 70
     0
  9
$DIMTAD
 70
     1
  9
$DIMZIN
 70
     8
  9
$DIMBLK
  1

  9
$DIMASO
 70
     1
  9
$DIMSHO
 70
     1
  9
$DIMPOST
  1

  9
$DIMAPOST
  1

  9
$DIMALT
 70
     0
  9
$DIMALTD
 70
     3
  9
$DIMALTF
 40
0.03937007874016
  9
$DIMLFAC
 40
1.0
  9
$DIMTOFL
 70
     1
  9
$DIMTVP
 40
0.0
  9
$DIMTIX
 70
     0
  9
$DIMSOXD
 70
     0
  9
$DIMSAH
 70
     0
  9
$DIMBLK1
  1

  9
$DIMBLK2
  1

  9
$DIMSTYLE
  2
ISO-25
  9
$DIMCLRD
 70
     0
  9
$DIMCLRE
 70
     0
  9
$DIMCLRT
 70
     0
  9
$DIMTFAC
 40
1.0
  9
$DIMGAP
 40
0.625
  9
$DIMJUST
 70
     0
  9
$DIMSD1
 70
     0
  9
$DIMSD2
 70
     0
  9
$DIMTOLJ
 70
     0
  9
$DIMTZIN
 70
     8
  9
$DIMALTZ
 70
     0
  9
$DIMALTTZ
 70
     0
  9
$DIMFIT
 70
     3
  9
$DIMUPT
 70
     0
  9
$DIMUNIT
 70
     2
  9
$DIMDEC
 70
     2
  9
$DIMTDEC
 70
     2
  9
$DIMALTU
 70
     2
  9
$DIMALTTD
 70
     3
  9
$DIMTXSTY
  7
STANDARD
  9
$DIMAUNIT
 70
     0
  9
$LUNITS
 70
     2
  9
$LUPREC
 70
     4
  9
$SKETCHINC
 40
1.0
  9
$FILLETRAD
 40
10.0
  9
$AUNITS
 70
     0
  9
$AUPREC
 70
     0
  9
$MENU
  1
.
  9
$ELEVATION
 40
0.0
  9
$PELEVATION
 40
0.0
  9
$THICKNESS
 40
0.0
  9
$LIMCHECK
 70
     0
  9
$BLIPMODE
 70
     0
  9
$CHAMFERA
 40
10.0
  9
$CHAMFERB
 40
10.0
  9
$CHAMFERC
 40
20.0
  9
$CHAMFERD
 40
0.0
  9
$SKPOLY
 70
     0
  9
$TDCREATE
 40
2453935.933843252
  9
$TDUPDATE
 40
2453935.934398680
  9
$TDINDWG
 40
0.0005563542
  9
$TDUSRTIMER
 40
0.0005562384
  9
$USRTIMER
 70
     1
  9
$ANGBASE
 50
0.0
  9
$ANGDIR
 70
     0
  9
$PDMODE
 70
     0
  9
$PDSIZE
 40
0.0
  9
$PLINEWID
 40
0.0
  9
$COORDS
 70
     1
  9
$SPLFRAME
 70
     0
  9
$SPLINETYPE
 70
     6
  9
$SPLINESEGS
 70
     8
  9
$ATTDIA
 70
     0
  9
$ATTREQ
 70
     1
  9
$HANDLING
 70
 22529
  9
$HANDSEED
  5
4A
  9
$SURFTAB1
 70
     6
  9
$SURFTAB2
 70
     6
  9
$SURFTYPE
 70
     6
  9
$SURFU
 70
     6
  9
$SURFV
 70
     6
  9
$UCSNAME
  2

  9
$UCSORG
 10
0.0
 20
0.0
 30
0.0
  9
$UCSXDIR
 10
1.0
 20
0.0
 30
0.0
  9
$UCSYDIR
 10
0.0
 20
1.0
 30
0.0
  9
$PUCSNAME
  2

  9
$PUCSORG
 10
0.0
 20
0.0
 30
0.0
  9
$PUCSXDIR
 10
1.0
 20
0.0
 30
0.0
  9
$PUCSYDIR
 10
0.0
 20
1.0
 30
0.0
  9
$USERI1
 70
     0
  9
$USERI2
 70
     0
  9
$USERI3
 70
     0
  9
$USERI4
 70
     0
  9
$USERI5
 70
     0
  9
$USERR1
 40
0.0
  9
$USERR2
 40
0.0
  9
$USERR3
 40
0.0
  9
$USERR4
 40
0.0
  9
$USERR5
 40
0.0
  9
$WORLDVIEW
 70
     1
  9
$SHADEDGE
 70
     3
  9
$SHADEDIF
 70
    70
  9
$TILEMODE
 70
     1
  9
$MAXACTVP
 70
    64
  9
$PINSBASE
 10
0.0
 20
0.0
 30
0.0
  9
$PLIMCHECK
 70
     0
  9
$PEXTMIN
 10
1.000000000000000E+20
 20
1.000000000000000E+20
 30
1.000000000000000E+20
  9
$PEXTMAX
 10
-1.000000000000000E+20
 20
-1.000000000000000E+20
 30
-1.000000000000000E+20
  9
$PLIMMIN
 10
0.0
 20
0.0
  9
$PLIMMAX
 10
420.0
 20
297.0
  9
$UNITMODE
 70
     0
  9
$VISRETAIN
 70
     1
  9
$PLINEGEN
 70
     0
  9
$PSLTSCALE
 70
     1
  9
$TREEDEPTH
 70
  3020
  9
$PICKSTYLE
 70
     1
  9
$CMLSTYLE
  2
STANDARD
  9
$CMLJUST
 70
     0
  9
$CMLSCALE
 40
20.0
  9
$SAVEIMAGES
 70
     1
  0
ENDSEC
  0
SECTION
  2
CLASSES
  0
CLASS
  1
ACDBDICTIONARYWDFLT
  2
AcDbDictionaryWithDefault
  3
AutoCAD 2000
 90
    32768
280
     0
281
     0
  0
CLASS
  1
ACDBPLACEHOLDER
  2
AcDbPlaceHolder
  3
AutoCAD 2000
 90
    32768
280
     0
281
     0
  0
CLASS
  1
LAYOUT
  2
AcDbLayout
  3
AutoCAD 2000
 90
    32768
280
     0
281
     0
  0
CLASS
  1
DICTIONARYVAR
  2
AcDbDictionaryVar
  3
AutoCAD 2000
 90
    32768
280
     0
281
     0
  0
CLASS
  1
LONG_TRANSACTION
  2
AcDbLongTransaction
  3
AutoCAD 2000
 90
    32768
280
     0
281
     0
  0
CLASS
  1
LWPOLYLINE
  2
AcDbPolyline
  3
AutoCAD 2000
 90
    32768
280
     0
281
     1
  0
CLASS
  1
HATCH
  2
AcDbHatch
  3
AutoCAD 2000
 90
    32768
280
     0
281
     1
  0
CLASS
  1
XRECORD
  2
AcDbXrecord
  3
AutoCAD 2000
 90
    32768
280
     0
281
     0
  0
ENDSEC
  0
SECTION
  2
TABLES
  0
TABLE
  2
VPORT
  5
8
330
0
100
AcDbSymbolTable
 70
     2
  0
VPORT
  5
43
330
8
100
AcDbSymbolTableRecord
100
AcDbViewportTableRecord
  2
*ACTIVE
 70
     0
 10
0.0
 20
0.0
 11
1.0
 21
1.0
 12
505.3812210517317
 22
257.5500453436709
 13
0.0
 23
0.0
 14
10.0
 24
10.0
 15
10.0
 25
10.0
 16
0.0
 26
0.0
 36
1.0
 17
0.0
 27
0.0
 37
0.0
 40
515.1000906873419
 41
1.962264150943396
 42
50.0
 43
0.0
 44
0.0
 50
0.0
 51
0.0
 71
     0
 72
   100
 73
     1
 74
     3
 75
     0
 76
     0
 77
     0
 78
     0
  0
ENDTAB
  0
TABLE
  2
LTYPE
  5
5
330
0
100
AcDbSymbolTable
 70
     1
  0
LTYPE
  5
14
330
5
100
AcDbSymbolTableRecord
100
AcDbLinetypeTableRecord
  2
BYBLOCK
 70
     0
  3

 72
    65
 73
     0
 40
0.0
  0
LTYPE
  5
15
330
5
100
AcDbSymbolTableRecord
100
AcDbLinetypeTableRecord
  2
BYLAYER
 70
     0
  3

 72
    65
 73
     0
 40
0.0
  0
LTYPE
  5
16
330
5
100
AcDbSymbolTableRecord
100
AcDbLinetypeTableRecord
  2
CONTINUOUS
 70
     0
  3
Solid line
 72
    65
 73
     0
 40
0.0
  0
ENDTAB
  0
TABLE
  2
LAYER
  5
2
330
0
100
AcDbSymbolTable
 70
     1
  0
LAYER
  5
10
330
2
100
AcDbSymbolTableRecord
100
AcDbLayerTableRecord
  2
0
 70
     0
 62
     7
  6
CONTINUOUS
  0
ENDTAB
  0
TABLE
  2
STYLE
  5
3
330
0
100
AcDbSymbolTable
 70
     1
  0
STYLE
  5
11
330
3
100
AcDbSymbolTableRecord
100
AcDbTextStyleTableRecord
  2
STANDARD
 70
     0
 40
0.0
 41
1.0
 50
0.0
 71
     0
 42
2.5
  3
txt
  4

  0
ENDTAB
  0
TABLE
  2
VIEW
  5
6
330
0
100
AcDbSymbolTable
 70
     0
  0
ENDTAB
  0
TABLE
  2
UCS
  5
7
330
0
100
AcDbSymbolTable
 70
     0
  0
ENDTAB
  0
TABLE
  2
APPID
  5
9
330
0
100
AcDbSymbolTable
 70
     1
  0
APPID
  5
12
330
9
100
AcDbSymbolTableRecord
100
AcDbRegAppTableRecord
  2
ACAD
 70
     0
  0
ENDTAB
  0
TABLE
  2
DIMSTYLE
  5
A
330
0
100
AcDbSymbolTable
 70
     1
  0
DIMSTYLE
105
27
330
A
100
AcDbSymbolTableRecord
100
AcDbDimStyleTableRecord
  2
ISO-25
 70
     0
  3

  4

  5

  6

  7

 40
1.0
 41
2.5
 42
0.625
 43
3.75
 44
1.25
 45
0.0
 46
0.0
 47
0.0
 48
0.0
140
2.5
141
2.5
142
0.0
143
0.03937007874016
144
1.0
145
0.0
146
1.0
147
0.625
 71
     0
 72
     0
 73
     0
 74
     0
 75
     0
 76
     0
 77
     1
 78
     8
170
     0
171
     3
172
     1
173
     0
174
     0
175
     0
176
     0
177
     0
178
     0
270
     2
271
     2
272
     2
273
     2
274
     3
340
11
275
     0
280
     0
281
     0
282
     0
283
     0
284
     8
285
     0
286
     0
287
     3
288
     0
  0
ENDTAB
  0
TABLE
  2
BLOCK_RECORD
  5
1
330
0
100
AcDbSymbolTable
 70
     1
  0
BLOCK_RECORD
  5
1F
102
{ACAD_XDICTIONARY
360
46
102
}
330
1
100
AcDbSymbolTableRecord
100
AcDbBlockTableRecord
  2
*MODEL_SPACE
  0
BLOCK_RECORD
  5
1B
102
{ACAD_XDICTIONARY
360
44
102
}
330
1
100
AcDbSymbolTableRecord
100
AcDbBlockTableRecord
  2
*PAPER_SPACE
  0
ENDTAB
  0
ENDSEC
  0
SECTION
  2
BLOCKS
  0
BLOCK
  5
20
330
1F
100
AcDbEntity
  8
0
100
AcDbBlockBegin
  2
*MODEL_SPACE
 70
     0
 10
0.0
 20
0.0
 30
0.0
  3
*MODEL_SPACE
  1

  0
ENDBLK
  5
21
330
1F
100
AcDbEntity
  8
0
100
AcDbBlockEnd
  0
BLOCK
  5
1C
330
1B
100
AcDbEntity
 67
     1
  8
0
100
AcDbBlockBegin
  2
*PAPER_SPACE
 70
     0
 10
0.0
 20
0.0
 30
0.0
  3
*PAPER_SPACE
  1

  0
ENDBLK
  5
1D
330
1B
100
AcDbEntity
 67
     1
  8
0
100
AcDbBlockEnd
  0
ENDSEC
  0
SECTION
  2
ENTITIES
  0
LINE
  5
100
330
1F
100
AcDbEntity
  8
0
  62
7
100
AcDbLine
 10
176.376517
 20
477.520307
 30
0.000000
 11
176.376517
 21
466.457807
 31
0.000000
  0
LINE
  5
101
330
1F
100
AcDbEntity
  8
0
  62
7
100
AcDbLine
 10
176.376517
 20
466.457807
 30
0.000000
 11
173.376517
 21
466.457807
 31
0.000000
  0
LINE
  5
102
330
1F
100
AcDbEntity
  8
0
  62
7
100
AcDbLine
 10
173.376517
 20
466.457807
 30
0.000000
 11
173.376517
 21
458.582807
 31
0.000000
  0
LINE
  5
103
330
1F
100
AcDbEntity
  8
0
  62
7
100
AcDbLine
 10
173.376517
 20
458.582807
 30
0.000000
 11
176.376517
 21
458.582807
 31
0.000000
  0
LINE
  5
104
330
1F
100
AcDbEntity
  8
0
  62
7
100
AcDbLine
 10
176.376517
 20
458.582807
 30
0.000000
 11
176.376517
 21
450.707807
 31
0.000000
  0
LINE
  5
105
330
1F
100
AcDbEntity
  8
0
  62
7
100
AcDbLine
 10
176.376517
 20
450.707807
 30
0.000000
 11
176.376517
 21
447.520307
 31
0.000000
  0
LINE
  5
106
330
1F
100
AcDbEntity
  8
0
  62
7
100
AcDbLine
 10
176.376517
 20
447.520307
 30
0.000000
 11
184.439017
 21
447.520307
 31
0.000000
  0
LINE
  5
107
330
1F
100
AcDbEntity
  8
0
  62
7
100
AcDbLine
 10
184.439017
 20
447.520307
 30
0.000000
 11
184.439017
 21
450.520307
 31
0.000000
  0
LINE
  5
108
330
1F
100
AcDbEntity
  8
0
  62
7
100
AcDbLine
 10
184.439017
 20
450.520307
 30
0.000000
 11
192.314017
 21
450.520307
 31
0.000000
  0
LINE
  5
109
330
1F
100
AcDbEntity
  8
0
  62
7
100
AcDbLine
 10
192.314017
 20
450.520307
 30
0.000000
 11
192.314017
 21
447.520307
 31
0.000000
  0
LINE
  5
110
330
1F
100
AcDbEntity
  8
0
  62
7
100
AcDbLine
 10
192.314017
 20
447.520307
 30
0.000000
 11
200.189017
 21
447.520307
 31
0.000000
  0
LINE
  5
111
330
1F
100
AcDbEntity
  8
0
  62
7
100
AcDbLine
 10
200.189017
 20
447.520307
 30
0.000000
 11
200.376517
 21
447.520307
 31
0.000000
  0
LINE
  5
112
330
1F
100
AcDbEntity
  8
0
  62
7
100
AcDbLine
 10
200.376517
 20
447.520307
 30
0.000000
 11
200.376517
 21
458.582807
 31
0.000000
  0
LINE
  5
113
330
1F
100
AcDbEntity
  8
0
  62
7
100
AcDbLine
 10
200.376517
 20
458.582807
 30
0.000000
 11
203.376517
 21
458.582807
 31
0.000000
  0
LINE
  5
114
330
1F
100
AcDbEntity
  8
0
  62
7
100
AcDbLine
 10
203.376517
 20
458.582807
 30
0.000000
 11
203.376517
 21
466.457807
 31
0.000000
  0
LINE
  5
115
330
1F
100
AcDbEntity
  8
0
  62
7
100
AcDbLine
 10
203.376517
 20
466.457807
 30
0.000000
 11
200.376517
 21
466.457807
 31
0.000000
  0
LINE
  5
116
330
1F
100
AcDbEntity
  8
0
  62
7
100
AcDbLine
 10
200.376517
 20
466.457807
 30
0.000000
 11
200.376517
 21
474.332807
 31
0.000000
  0
LINE
  5
117
330
1F
100
AcDbEntity
  8
0
  62
7
100
AcDbLine
 10
200.376517
 20
474.332807
 30
0.000000
 11
200.376517
 21
477.520307
 31
0.000000
  0
LINE
  5
118
330
1F
100
AcDbEntity
  8
0
  62
7
100
AcDbLine
 10
200.376517
 20
477.520307
 30
0.000000
 11
192.314017
 21
477.520307
 31
0.000000
  0
LINE
  5
119
330
1F
100
AcDbEntity
  8
0
  62
7
100
AcDbLine
 10
192.314017
 20
477.520307
 30
0.000000
 11
192.314017
 21
474.520307
 31
0.000000
  0
LINE
  5
120
330
1F
100
AcDbEntity
  8
0
  62
7
100
AcDbLine
 10
192.314017
 20
474.520307
 30
0.000000
 11
184.439017
 21
474.520307
 31
0.000000
  0
LINE
  5
121
330
1F
100
AcDbEntity
  8
0
  62
7
100
AcDbLine
 10
184.439017
 20
474.520307
 30
0.000000
 11
184.439017
 21
477.520307
 31
0.000000
  0
LINE
  5
122
330
1F
100
AcDbEntity
  8
0
  62
7
100
AcDbLine
 10
184.439017
 20
477.520307
 30
0.000000
 11
176.564017
 21
477.520307
 31
0.000000
  0
LINE
  5
123
330
1F
100
AcDbEntity
  8
0
  62
7
100
AcDbLine
 10
176.564017
 20
477.520307
 30
0.000000
 11
176.376517
 21
477.520307
 31
0.000000
  0
LINE
  5
124
330
1F
100
AcDbEntity
  8
0
  62
7
100
AcDbLine
 10
177.396536
 20
442.784180
 30
0.000000
 11
177.209036
 21
442.784180
 31
0.000000
  0
LINE
  5
125
330
1F
100
AcDbEntity
  8
0
  62
7
100
AcDbLine
 10
177.209036
 20
442.784180
 30
0.000000
 11
177.209036
 21
434.721680
 31
0.000000
  0
LINE
  5
126
330
1F
100
AcDbEntity
  8
0
  62
7
100
AcDbLine
 10
177.209036
 20
434.721680
 30
0.000000
 11
174.209036
 21
434.721680
 31
0.000000
  0
LINE
  5
127
330
1F
100
AcDbEntity
  8
0
  62
7
100
AcDbLine
 10
174.209036
 20
434.721680
 30
0.000000
 11
174.209036
 21
426.846680
 31
0.000000
  0
LINE
  5
128
330
1F
100
AcDbEntity
  8
0
  62
7
100
AcDbLine
 10
174.209036
 20
426.846680
 30
0.000000
 11
177.209036
 21
426.846680
 31
0.000000
  0
LINE
  5
129
330
1F
100
AcDbEntity
  8
0
  62
7
100
AcDbLine
 10
177.209036
 20
426.846680
 30
0.000000
 11
177.209036
 21
418.971680
 31
0.000000
  0
LINE
  5
130
330
1F
100
AcDbEntity
  8
0
  62
7
100
AcDbLine
 10
177.209036
 20
418.971680
 30
0.000000
 11
177.209036
 21
418.784180
 31
0.000000
  0
LINE
  5
131
330
1F
100
AcDbEntity
  8
0
  62
7
100
AcDbLine
 10
177.209036
 20
418.784180
 30
0.000000
 11
185.271536
 21
418.784180
 31
0.000000
  0
LINE
  5
132
330
1F
100
AcDbEntity
  8
0
  62
7
100
AcDbLine
 10
185.271536
 20
418.784180
 30
0.000000
 11
185.271536
 21
415.784180
 31
0.000000
  0
LINE
  5
133
330
1F
100
AcDbEntity
  8
0
  62
7
100
AcDbLine
 10
185.271536
 20
415.784180
 30
0.000000
 11
193.146536
 21
415.784180
 31
0.000000
  0
LINE
  5
134
330
1F
100
AcDbEntity
  8
0
  62
7
100
AcDbLine
 10
193.146536
 20
415.784180
 30
0.000000
 11
193.146536
 21
418.784180
 31
0.000000
  0
LINE
  5
135
330
1F
100
AcDbEntity
  8
0
  62
7
100
AcDbLine
 10
193.146536
 20
418.784180
 30
0.000000
 11
201.021536
 21
418.784180
 31
0.000000
  0
LINE
  5
136
330
1F
100
AcDbEntity
  8
0
  62
7
100
AcDbLine
 10
201.021536
 20
418.784180
 30
0.000000
 11
201.209036
 21
418.784180
 31
0.000000
  0
LINE
  5
137
330
1F
100
AcDbEntity
  8
0
  62
7
100
AcDbLine
 10
201.209036
 20
418.784180
 30
0.000000
 11
201.209036
 21
426.846680
 31
0.000000
  0
LINE
  5
138
330
1F
100
AcDbEntity
  8
0
  62
7
100
AcDbLine
 10
201.209036
 20
426.846680
 30
0.000000
 11
204.209036
 21
426.846680
 31
0.000000
  0
LINE
  5
139
330
1F
100
AcDbEntity
  8
0
  62
7
100
AcDbLine
 10
204.209036
 20
426.846680
 30
0.000000
 11
204.209036
 21
434.721680
 31
0.000000
  0
LINE
  5
140
330
1F
100
AcDbEntity
  8
0
  62
7
100
AcDbLine
 10
204.209036
 20
434.721680
 30
0.000000
 11
201.209036
 21
434.721680
 31
0.000000
  0
LINE
  5
141
330
1F
100
AcDbEntity
  8
0
  62
7
100
AcDbLine
 10
201.209036
 20
434.721680
 30
0.000000
 11
201.209036
 21
442.596680
 31
0.000000
  0
LINE
  5
142
330
1F
100
AcDbEntity
  8
0
  62
7
100
AcDbLine
 10
201.209036
 20
442.596680
 30
0.000000
 11
201.209036
 21
442.784180
 31
0.000000
  0
LINE
  5
143
330
1F
100
AcDbEntity
  8
0
  62
7
100
AcDbLine
 10
201.209036
 20
442.784180
 30
0.000000
 11
193.146536
 21
442.784180
 31
0.000000
  0
LINE
  5
144
330
1F
100
AcDbEntity
  8
0
  62
7
100
AcDbLine
 10
193.146536
 20
442.784180
 30
0.000000
 11
193.146536
 21
445.784180
 31
0.000000
  0
LINE
  5
145
330
1F
100
AcDbEntity
  8
0
  62
7
100
AcDbLine
 10
193.146536
 20
445.784180
 30
0.000000
 11
185.271536
 21
445.784180
 31
0.000000
  0
LINE
  5
146
330
1F
100
AcDbEntity
  8
0
  62
7
100
AcDbLine
 10
185.271536
 20
445.784180
 30
0.000000
 11
185.271536
 21
442.784180
 31
0.000000
  0
LINE
  5
147
330
1F
100
AcDbEntity
  8
0
  62
7
100
AcDbLine
 10
185.271536
 20
442.784180
 30
0.000000
 11
177.396536
 21
442.784180
 31
0.000000
  0
LINE
  5
148
330
1F
100
AcDbEntity
  8
0
  62
7
100
AcDbLine
 10
104.747875
 20
510.117468
 30
0.000000
 11
101.560375
 21
510.117468
 31
0.000000
  0
LINE
  5
149
330
1F
100
AcDbEntity
  8
0
  62
7
100
AcDbLine
 10
101.560375
 20
510.117468
 30
0.000000
 11
101.560375
 21
499.054968
 31
0.000000
  0
LINE
  5
150
330
1F
100
AcDbEntity
  8
0
  62
7
100
AcDbLine
 10
101.560375
 20
499.054968
 30
0.000000
 11
104.560375
 21
499.054968
 31
0.000000
  0
LINE
  5
151
330
1F
100
AcDbEntity
  8
0
  62
7
100
AcDbLine
 10
104.560375
 20
499.054968
 30
0.000000
 11
104.560375
 21
491.179968
 31
0.000000
  0
LINE
  5
152
330
1F
100
AcDbEntity
  8
0
  62
7
100
AcDbLine
 10
104.560375
 20
491.179968
 30
0.000000
 11
101.560375
 21
491.179968
 31
0.000000
  0
LINE
  5
153
330
1F
100
AcDbEntity
  8
0
  62
7
100
AcDbLine
 10
101.560375
 20
491.179968
 30
0.000000
 11
101.560375
 21
483.304968
 31
0.000000
  0
LINE
  5
154
330
1F
100
AcDbEntity
  8
0
  62
7
100
AcDbLine
 10
101.560375
 20
483.304968
 30
0.000000
 11
101.560375
 21
480.117468
 31
0.000000
  0
LINE
  5
155
330
1F
100
AcDbEntity
  8
0
  62
7
100
AcDbLine
 10
101.560375
 20
480.117468
 30
0.000000
 11
112.622875
 21
480.117468
 31
0.000000
  0
LINE
  5
156
330
1F
100
AcDbEntity
  8
0
  62
7
100
AcDbLine
 10
112.622875
 20
480.117468
 30
0.000000
 11
112.622875
 21
483.117468
 31
0.000000
  0
LINE
  5
157
330
1F
100
AcDbEntity
  8
0
  62
7
100
AcDbLine
 10
112.622875
 20
483.117468
 30
0.000000
 11
120.497875
 21
483.117468
 31
0.000000
  0
LINE
  5
158
330
1F
100
AcDbEntity
  8
0
  62
7
100
AcDbLine
 10
120.497875
 20
483.117468
 30
0.000000
 11
120.497875
 21
480.117468
 31
0.000000
  0
LINE
  5
159
330
1F
100
AcDbEntity
  8
0
  62
7
100
AcDbLine
 10
120.497875
 20
480.117468
 30
0.000000
 11
128.372875
 21
480.117468
 31
0.000000
  0
LINE
  5
160
330
1F
100
AcDbEntity
  8
0
  62
7
100
AcDbLine
 10
128.372875
 20
480.117468
 30
0.000000
 11
131.560375
 21
480.117468
 31
0.000000
  0
LINE
  5
161
330
1F
100
AcDbEntity
  8
0
  62
7
100
AcDbLine
 10
131.560375
 20
480.117468
 30
0.000000
 11
131.560375
 21
491.179968
 31
0.000000
  0
LINE
  5
162
330
1F
100
AcDbEntity
  8
0
  62
7
100
AcDbLine
 10
131.560375
 20
491.179968
 30
0.000000
 11
128.560375
 21
491.179968
 31
0.000000
  0
LINE
  5
163
330
1F
100
AcDbEntity
  8
0
  62
7
100
AcDbLine
 10
128.560375
 20
491.179968
 30
0.000000
 11
128.560375
 21
499.054968
 31
0.000000
  0
LINE
  5
164
330
1F
100
AcDbEntity
  8
0
  62
7
100
AcDbLine
 10
128.560375
 20
499.054968
 30
0.000000
 11
131.560375
 21
499.054968
 31
0.000000
  0
LINE
  5
165
330
1F
100
AcDbEntity
  8
0
  62
7
100
AcDbLine
 10
131.560375
 20
499.054968
 30
0.000000
 11
131.560375
 21
506.929968
 31
0.000000
  0
LINE
  5
166
330
1F
100
AcDbEntity
  8
0
  62
7
100
AcDbLine
 10
131.560375
 20
506.929968
 30
0.000000
 11
131.560375
 21
510.117468
 31
0.000000
  0
LINE
  5
167
330
1F
100
AcDbEntity
  8
0
  62
7
100
AcDbLine
 10
131.560375
 20
510.117468
 30
0.000000
 11
120.497875
 21
510.117468
 31
0.000000
  0
LINE
  5
168
330
1F
100
AcDbEntity
  8
0
  62
7
100
AcDbLine
 10
120.497875
 20
510.117468
 30
0.000000
 11
120.497875
 21
507.117468
 31
0.000000
  0
LINE
  5
169
330
1F
100
AcDbEntity
  8
0
  62
7
100
AcDbLine
 10
120.497875
 20
507.117468
 30
0.000000
 11
112.622875
 21
507.117468
 31
0.000000
  0
LINE
  5
170
330
1F
100
AcDbEntity
  8
0
  62
7
100
AcDbLine
 10
112.622875
 20
507.117468
 30
0.000000
 11
112.622875
 21
510.117468
 31
0.000000
  0
LINE
  5
171
330
1F
100
AcDbEntity
  8
0
  62
7
100
AcDbLine
 10
112.622875
 20
510.117468
 30
0.000000
 11
104.747875
 21
510.117468
 31
0.000000
  0
LINE
  5
172
330
1F
100
AcDbEntity
  8
0
  62
7
100
AcDbLine
 10
138.013478
 20
511.136508
 30
0.000000
 11
138.013478
 21
500.074008
 31
0.000000
  0
LINE
  5
173
330
1F
100
AcDbEntity
  8
0
  62
7
100
AcDbLine
 10
138.013478
 20
500.074008
 30
0.000000
 11
135.013478
 21
500.074008
 31
0.000000
  0
LINE
  5
174
330
1F
100
AcDbEntity
  8
0
  62
7
100
AcDbLine
 10
135.013478
 20
500.074008
 30
0.000000
 11
135.013478
 21
492.199008
 31
0.000000
  0
LINE
  5
175
330
1F
100
AcDbEntity
  8
0
  62
7
100
AcDbLine
 10
135.013478
 20
492.199008
 30
0.000000
 11
138.013478
 21
492.199008
 31
0.000000
  0
LINE
  5
176
330
1F
100
AcDbEntity
  8
0
  62
7
100
AcDbLine
 10
138.013478
 20
492.199008
 30
0.000000
 11
138.013478
 21
484.324008
 31
0.000000
  0
LINE
  5
177
330
1F
100
AcDbEntity
  8
0
  62
7
100
AcDbLine
 10
138.013478
 20
484.324008
 30
0.000000
 11
138.013478
 21
481.136508
 31
0.000000
  0
LINE
  5
178
330
1F
100
AcDbEntity
  8
0
  62
7
100
AcDbLine
 10
138.013478
 20
481.136508
 30
0.000000
 11
146.075978
 21
481.136508
 31
0.000000
  0
LINE
  5
179
330
1F
100
AcDbEntity
  8
0
  62
7
100
AcDbLine
 10
146.075978
 20
481.136508
 30
0.000000
 11
146.075978
 21
484.136508
 31
0.000000
  0
LINE
  5
180
330
1F
100
AcDbEntity
  8
0
  62
7
100
AcDbLine
 10
146.075978
 20
484.136508
 30
0.000000
 11
153.950978
 21
484.136508
 31
0.000000
  0
LINE
  5
181
330
1F
100
AcDbEntity
  8
0
  62
7
100
AcDbLine
 10
153.950978
 20
484.136508
 30
0.000000
 11
153.950978
 21
481.136508
 31
0.000000
  0
LINE
  5
182
330
1F
100
AcDbEntity
  8
0
  62
7
100
AcDbLine
 10
153.950978
 20
481.136508
 30
0.000000
 11
161.825978
 21
481.136508
 31
0.000000
  0
LINE
  5
183
330
1F
100
AcDbEntity
  8
0
  62
7
100
AcDbLine
 10
161.825978
 20
481.136508
 30
0.000000
 11
162.013478
 21
481.136508
 31
0.000000
  0
LINE
  5
184
330
1F
100
AcDbEntity
  8
0
  62
7
100
AcDbLine
 10
162.013478
 20
481.136508
 30
0.000000
 11
162.013478
 21
492.199008
 31
0.000000
  0
LINE
  5
185
330
1F
100
AcDbEntity
  8
0
  62
7
100
AcDbLine
 10
162.013478
 20
492.199008
 30
0.000000
 11
165.013478
 21
492.199008
 31
0.000000
  0
LINE
  5
186
330
1F
100
AcDbEntity
  8
0
  62
7
100
AcDbLine
 10
165.013478
 20
492.199008
 30
0.000000
 11
165.013478
 21
500.074008
 31
0.000000
  0
LINE
  5
187
330
1F
100
AcDbEntity
  8
0
  62
7
100
AcDbLine
 10
165.013478
 20
500.074008
 30
0.000000
 11
162.013478
 21
500.074008
 31
0.000000
  0
LINE
  5
188
330
1F
100
AcDbEntity
  8
0
  62
7
100
AcDbLine
 10
162.013478
 20
500.074008
 30
0.000000
 11
162.013478
 21
507.949008
 31
0.000000
  0
LINE
  5
189
330
1F
100
AcDbEntity
  8
0
  62
7
100
AcDbLine
 10
162.013478
 20
507.949008
 30
0.000000
 11
162.013478
 21
511.136508
 31
0.000000
  0
LINE
  5
190
330
1F
100
AcDbEntity
  8
0
  62
7
100
AcDbLine
 10
162.013478
 20
511.136508
 30
0.000000
 11
153.950978
 21
511.136508
 31
0.000000
  0
LINE
  5
191
330
1F
100
AcDbEntity
  8
0
  62
7
100
AcDbLine
 10
153.950978
 20
511.136508
 30
0.000000
 11
153.950978
 21
508.136508
 31
0.000000
  0
LINE
  5
192
330
1F
100
AcDbEntity
  8
0
  62
7
100
AcDbLine
 10
153.950978
 20
508.136508
 30
0.000000
 11
146.075978
 21
508.136508
 31
0.000000
  0
LINE
  5
193
330
1F
100
AcDbEntity
  8
0
  62
7
100
AcDbLine
 10
146.075978
 20
508.136508
 30
0.000000
 11
146.075978
 21
511.136508
 31
0.000000
  0
LINE
  5
194
330
1F
100
AcDbEntity
  8
0
  62
7
100
AcDbLine
 10
146.075978
 20
511.136508
 30
0.000000
 11
138.200978
 21
511.136508
 31
0.000000
  0
LINE
  5
195
330
1F
100
AcDbEntity
  8
0
  62
7
100
AcDbLine
 10
138.200978
 20
511.136508
 30
0.000000
 11
138.013478
 21
511.136508
 31
0.000000
  0
LINE
  5
196
330
1F
100
AcDbEntity
  8
0
  62
7
100
AcDbLine
 10
173.885341
 20
508.461510
 30
0.000000
 11
173.697841
 21
508.461510
 31
0.000000
  0
LINE
  5
197
330
1F
100
AcDbEntity
  8
0
  62
7
100
AcDbLine
 10
173.697841
 20
508.461510
 30
0.000000
 11
173.697841
 21
500.399010
 31
0.000000
  0
LINE
  5
198
330
1F
100
AcDbEntity
  8
0
  62
7
100
AcDbLine
 10
173.697841
 20
500.399010
 30
0.000000
 11
170.697841
 21
500.399010
 31
0.000000
  0
LINE
  5
199
330
1F
100
AcDbEntity
  8
0
  62
7
100
AcDbLine
 10
170.697841
 20
500.399010
 30
0.000000
 11
170.697841
 21
492.524010
 31
0.000000
  0
LINE
  5
200
330
1F
100
AcDbEntity
  8
0
  62
7
100
AcDbLine
 10
170.697841
 20
492.524010
 30
0.000000
 11
173.697841
 21
492.524010
 31
0.000000
  0
LINE
  5
201
330
1F
100
AcDbEntity
  8
0
  62
7
100
AcDbLine
 10
173.697841
 20
492.524010
 30
0.000000
 11
173.697841
 21
484.649010
 31
0.000000
  0
LINE
  5
202
330
1F
100
AcDbEntity
  8
0
  62
7
100
AcDbLine
 10
173.697841
 20
484.649010
 30
0.000000
 11
173.697841
 21
484.461510
 31
0.000000
  0
LINE
  5
203
330
1F
100
AcDbEntity
  8
0
  62
7
100
AcDbLine
 10
173.697841
 20
484.461510
 30
0.000000
 11
181.760341
 21
484.461510
 31
0.000000
  0
LINE
  5
204
330
1F
100
AcDbEntity
  8
0
  62
7
100
AcDbLine
 10
181.760341
 20
484.461510
 30
0.000000
 11
181.760341
 21
481.461510
 31
0.000000
  0
LINE
  5
205
330
1F
100
AcDbEntity
  8
0
  62
7
100
AcDbLine
 10
181.760341
 20
481.461510
 30
0.000000
 11
189.635341
 21
481.461510
 31
0.000000
  0
LINE
  5
206
330
1F
100
AcDbEntity
  8
0
  62
7
100
AcDbLine
 10
189.635341
 20
481.461510
 30
0.000000
 11
189.635341
 21
484.461510
 31
0.000000
  0
LINE
  5
207
330
1F
100
AcDbEntity
  8
0
  62
7
100
AcDbLine
 10
189.635341
 20
484.461510
 30
0.000000
 11
197.510341
 21
484.461510
 31
0.000000
  0
LINE
  5
208
330
1F
100
AcDbEntity
  8
0
  62
7
100
AcDbLine
 10
197.510341
 20
484.461510
 30
0.000000
 11
197.697841
 21
484.461510
 31
0.000000
  0
LINE
  5
209
330
1F
100
AcDbEntity
  8
0
  62
7
100
AcDbLine
 10
197.697841
 20
484.461510
 30
0.000000
 11
197.697841
 21
492.524010
 31
0.000000
  0
LINE
  5
210
330
1F
100
AcDbEntity
  8
0
  62
7
100
AcDbLine
 10
197.697841
 20
492.524010
 30
0.000000
 11
200.697841
 21
492.524010
 31
0.000000
  0
LINE
  5
211
330
1F
100
AcDbEntity
  8
0
  62
7
100
AcDbLine
 10
200.697841
 20
492.524010
 30
0.000000
 11
200.697841
 21
500.399010
 31
0.000000
  0
LINE
  5
212
330
1F
100
AcDbEntity
  8
0
  62
7
100
AcDbLine
 10
200.697841
 20
500.399010
 30
0.000000
 11
197.697841
 21
500.399010
 31
0.000000
  0
LINE
  5
213
330
1F
100
AcDbEntity
  8
0
  62
7
100
AcDbLine
 10
197.697841
 20
500.399010
 30
0.000000
 11
197.697841
 21
508.274010
 31
0.000000
  0
LINE
  5
214
330
1F
100
AcDbEntity
  8
0
  62
7
100
AcDbLine
 10
197.697841
 20
508.274010
 30
0.000000
 11
197.697841
 21
508.461510
 31
0.000000
  0
LINE
  5
215
330
1F
100
AcDbEntity
  8
0
  62
7
100
AcDbLine
 10
197.697841
 20
508.461510
 30
0.000000
 11
189.635341
 21
508.461510
 31
0.000000
  0
LINE
  5
216
330
1F
100
AcDbEntity
  8
0
  62
7
100
AcDbLine
 10
189.635341
 20
508.461510
 30
0.000000
 11
189.635341
 21
511.461510
 31
0.000000
  0
LINE
  5
217
330
1F
100
AcDbEntity
  8
0
  62
7
100
AcDbLine
 10
189.635341
 20
511.461510
 30
0.000000
 11
181.760341
 21
511.461510
 31
0.000000
  0
LINE
  5
218
330
1F
100
AcDbEntity
  8
0
  62
7
100
AcDbLine
 10
181.760341
 20
511.461510
 30
0.000000
 11
181.760341
 21
508.461510
 31
0.000000
  0
LINE
  5
219
330
1F
100
AcDbEntity
  8
0
  62
7
100
AcDbLine
 10
181.760341
 20
508.461510
 30
0.000000
 11
173.885341
 21
508.461510
 31
0.000000
  0
LINE
  5
220
330
1F
100
AcDbEntity
  8
0
  62
7
100
AcDbLine
 10
101.700561
 20
478.721810
 30
0.000000
 11
171.700520
 21
478.721810
 31
0.000000
  0
LINE
  5
221
330
1F
100
AcDbEntity
  8
0
  62
7
100
AcDbLine
 10
171.700520
 20
478.721810
 30
0.000000
 11
171.700520
 21
408.721825
 31
0.000000
  0
LINE
  5
222
330
1F
100
AcDbEntity
  8
0
  62
7
100
AcDbLine
 10
171.700520
 20
408.721825
 30
0.000000
 11
101.700561
 21
408.721825
 31
0.000000
  0
LINE
  5
223
330
1F
100
AcDbEntity
  8
0
  62
7
100
AcDbLine
 10
101.700561
 20
408.721825
 30
0.000000
 11
101.700561
 21
478.721810
 31
0.000000
  0
LINE
  5
224
330
1F
100
AcDbEntity
  8
0
  62
7
100
AcDbLine
 10
130.757080
 20
460.776767
 30
0.000000
 11
138.632080
 21
460.776767
 31
0.000000
  0
LINE
  5
225
330
1F
100
AcDbEntity
  8
0
  62
7
100
AcDbLine
 10
138.632080
 20
460.776767
 30
0.000000
 11
138.632080
 21
457.776767
 31
0.000000
  0
LINE
  5
226
330
1F
100
AcDbEntity
  8
0
  62
7
100
AcDbLine
 10
138.632080
 20
457.776767
 30
0.000000
 11
130.757080
 21
457.776767
 31
0.000000
  0
LINE
  5
227
330
1F
100
AcDbEntity
  8
0
  62
7
100
AcDbLine
 10
130.757080
 20
457.776767
 30
0.000000
 11
130.757080
 21
460.776767
 31
0.000000
  0
LINE
  5
228
330
1F
100
AcDbEntity
  8
0
  62
7
100
AcDbLine
 10
146.694580
 20
449.714267
 30
0.000000
 11
149.694580
 21
449.714267
 31
0.000000
  0
LINE
  5
229
330
1F
100
AcDbEntity
  8
0
  62
7
100
AcDbLine
 10
149.694580
 20
449.714267
 30
0.000000
 11
149.694580
 21
441.839267
 31
0.000000
  0
LINE
  5
230
330
1F
100
AcDbEntity
  8
0
  62
7
100
AcDbLine
 10
149.694580
 20
441.839267
 30
0.000000
 11
146.694580
 21
441.839267
 31
0.000000
  0
LINE
  5
231
330
1F
100
AcDbEntity
  8
0
  62
7
100
AcDbLine
 10
146.694580
 20
441.839267
 30
0.000000
 11
146.694580
 21
449.714267
 31
0.000000
  0
LINE
  5
232
330
1F
100
AcDbEntity
  8
0
  62
7
100
AcDbLine
 10
119.694580
 20
449.714267
 30
0.000000
 11
122.694580
 21
449.714267
 31
0.000000
  0
LINE
  5
233
330
1F
100
AcDbEntity
  8
0
  62
7
100
AcDbLine
 10
122.694580
 20
449.714267
 30
0.000000
 11
122.694580
 21
441.839267
 31
0.000000
  0
LINE
  5
234
330
1F
100
AcDbEntity
  8
0
  62
7
100
AcDbLine
 10
122.694580
 20
441.839267
 30
0.000000
 11
119.694580
 21
441.839267
 31
0.000000
  0
LINE
  5
235
330
1F
100
AcDbEntity
  8
0
  62
7
100
AcDbLine
 10
119.694580
 20
441.839267
 30
0.000000
 11
119.694580
 21
449.714267
 31
0.000000
  0
LINE
  5
236
330
1F
100
AcDbEntity
  8
0
  62
7
100
AcDbLine
 10
130.757080
 20
433.776767
 30
0.000000
 11
138.632080
 21
433.776767
 31
0.000000
  0
LINE
  5
237
330
1F
100
AcDbEntity
  8
0
  62
7
100
AcDbLine
 10
138.632080
 20
433.776767
 30
0.000000
 11
138.632080
 21
430.776767
 31
0.000000
  0
LINE
  5
238
330
1F
100
AcDbEntity
  8
0
  62
7
100
AcDbLine
 10
138.632080
 20
430.776767
 30
0.000000
 11
130.757080
 21
430.776767
 31
0.000000
  0
LINE
  5
239
330
1F
100
AcDbEntity
  8
0
  62
7
100
AcDbLine
 10
130.757080
 20
430.776767
 30
0.000000
 11
130.757080
 21
433.776767
 31
0.000000
  0
SPLINE
  5
240
330
1F
100
AcDbEntity
  8
0
 62
     7
100
AcDbSpline
210
0.000000
220
0.000000
230
1.0
 70
     8
 71
     3
 72
     8
 73
     4
 42
0.0000000001
 43
0.0000000001
 44
0.0000000001
 12
0.000000
 22
0.000000
 32
0.000000
 13
0.000000
 23
0.000000
 33
0.000000
 40
0.000000
 40
0.000000
 40
0.000000
 40
0.000000
 40
1.000000
 40
1.000000
 40
1.000000
 40
1.000000
 10
145.013605
 20
496.136508
 30
0.000000
 10
145.012652
 20
497.009358
 30
0.000000
 10
145.246213
 20
497.881026
 30
0.000000
 10
145.683461
 20
498.636459
 30
0.000000
  0
SPLINE
  5
241
330
1F
100
AcDbEntity
  8
0
 62
     7
100
AcDbSpline
210
0.000000
220
0.000000
230
1.0
 70
     8
 71
     3
 72
     8
 73
     4
 42
0.0000000001
 43
0.0000000001
 44
0.0000000001
 12
0.000000
 22
0.000000
 32
0.000000
 13
0.000000
 23
0.000000
 33
0.000000
 40
0.000000
 40
0.000000
 40
0.000000
 40
0.000000
 40
1.000000
 40
1.000000
 40
1.000000
 40
1.000000
 10
145.683461
 20
498.636459
 30
0.000000
 10
146.119058
 20
499.392847
 30
0.000000
 10
146.757159
 20
500.030951
 30
0.000000
 10
147.513542
 20
500.466551
 30
0.000000
  0
SPLINE
  5
242
330
1F
100
AcDbEntity
  8
0
 62
     7
100
AcDbSpline
210
0.000000
220
0.000000
230
1.0
 70
     8
 71
     3
 72
     8
 73
     4
 42
0.0000000001
 43
0.0000000001
 44
0.0000000001
 12
0.000000
 22
0.000000
 32
0.000000
 13
0.000000
 23
0.000000
 33
0.000000
 40
0.000000
 40
0.000000
 40
0.000000
 40
0.000000
 40
1.000000
 40
1.000000
 40
1.000000
 40
1.000000
 10
147.513542
 20
500.466551
 30
0.000000
 10
148.268971
 20
500.903802
 30
0.000000
 10
149.140633
 20
501.137364
 30
0.000000
 10
150.013478
 20
501.136410
 30
0.000000
  0
SPLINE
  5
243
330
1F
100
AcDbEntity
  8
0
 62
     7
100
AcDbSpline
210
0.000000
220
0.000000
230
1.0
 70
     8
 71
     3
 72
     8
 73
     4
 42
0.0000000001
 43
0.0000000001
 44
0.0000000001
 12
0.000000
 22
0.000000
 32
0.000000
 13
0.000000
 23
0.000000
 33
0.000000
 40
0.000000
 40
0.000000
 40
0.000000
 40
0.000000
 40
1.000000
 40
1.000000
 40
1.000000
 40
1.000000
 10
150.013478
 20
501.136410
 30
0.000000
 10
150.886323
 20
501.137364
 30
0.000000
 10
151.757985
 20
500.903802
 30
0.000000
 10
152.513414
 20
500.466551
 30
0.000000
  0
SPLINE
  5
244
330
1F
100
AcDbEntity
  8
0
 62
     7
100
AcDbSpline
210
0.000000
220
0.000000
230
1.0
 70
     8
 71
     3
 72
     8
 73
     4
 42
0.0000000001
 43
0.0000000001
 44
0.0000000001
 12
0.000000
 22
0.000000
 32
0.000000
 13
0.000000
 23
0.000000
 33
0.000000
 40
0.000000
 40
0.000000
 40
0.000000
 40
0.000000
 40
1.000000
 40
1.000000
 40
1.000000
 40
1.000000
 10
152.513414
 20
500.466551
 30
0.000000
 10
153.269796
 20
500.030951
 30
0.000000
 10
153.907897
 20
499.392847
 30
0.000000
 10
154.343494
 20
498.636459
 30
0.000000
  0
SPLINE
  5
245
330
1F
100
AcDbEntity
  8
0
 62
     7
100
AcDbSpline
210
0.000000
220
0.000000
230
1.0
 70
     8
 71
     3
 72
     8
 73
     4
 42
0.0000000001
 43
0.0000000001
 44
0.0000000001
 12
0.000000
 22
0.000000
 32
0.000000
 13
0.000000
 23
0.000000
 33
0.000000
 40
0.000000
 40
0.000000
 40
0.000000
 40
0.000000
 40
1.000000
 40
1.000000
 40
1.000000
 40
1.000000
 10
154.343494
 20
498.636459
 30
0.000000
 10
154.780742
 20
497.881026
 30
0.000000
 10
155.014303
 20
497.009358
 30
0.000000
 10
155.013350
 20
496.136508
 30
0.000000
  0
SPLINE
  5
246
330
1F
100
AcDbEntity
  8
0
 62
     7
100
AcDbSpline
210
0.000000
220
0.000000
230
1.0
 70
     8
 71
     3
 72
     8
 73
     4
 42
0.0000000001
 43
0.0000000001
 44
0.0000000001
 12
0.000000
 22
0.000000
 32
0.000000
 13
0.000000
 23
0.000000
 33
0.000000
 40
0.000000
 40
0.000000
 40
0.000000
 40
0.000000
 40
1.000000
 40
1.000000
 40
1.000000
 40
1.000000
 10
155.013350
 20
496.136508
 30
0.000000
 10
155.014303
 20
495.263658
 30
0.000000
 10
154.780742
 20
494.391990
 30
0.000000
 10
154.343494
 20
493.636557
 30
0.000000
  0
SPLINE
  5
247
330
1F
100
AcDbEntity
  8
0
 62
     7
100
AcDbSpline
210
0.000000
220
0.000000
230
1.0
 70
     8
 71
     3
 72
     8
 73
     4
 42
0.0000000001
 43
0.0000000001
 44
0.0000000001
 12
0.000000
 22
0.000000
 32
0.000000
 13
0.000000
 23
0.000000
 33
0.000000
 40
0.000000
 40
0.000000
 40
0.000000
 40
0.000000
 40
1.000000
 40
1.000000
 40
1.000000
 40
1.000000
 10
154.343494
 20
493.636557
 30
0.000000
 10
153.907897
 20
492.880169
 30
0.000000
 10
153.269796
 20
492.242065
 30
0.000000
 10
152.513414
 20
491.806465
 30
0.000000
  0
SPLINE
  5
248
330
1F
100
AcDbEntity
  8
0
 62
     7
100
AcDbSpline
210
0.000000
220
0.000000
230
1.0
 70
     8
 71
     3
 72
     8
 73
     4
 42
0.0000000001
 43
0.0000000001
 44
0.0000000001
 12
0.000000
 22
0.000000
 32
0.000000
 13
0.000000
 23
0.000000
 33
0.000000
 40
0.000000
 40
0.000000
 40
0.000000
 40
0.000000
 40
1.000000
 40
1.000000
 40
1.000000
 40
1.000000
 10
152.513414
 20
491.806465
 30
0.000000
 10
151.757985
 20
491.369214
 30
0.000000
 10
150.886323
 20
491.135652
 30
0.000000
 10
150.013478
 20
491.136606
 30
0.000000
  0
SPLINE
  5
249
330
1F
100
AcDbEntity
  8
0
 62
     7
100
AcDbSpline
210
0.000000
220
0.000000
230
1.0
 70
     8
 71
     3
 72
     8
 73
     4
 42
0.0000000001
 43
0.0000000001
 44
0.0000000001
 12
0.000000
 22
0.000000
 32
0.000000
 13
0.000000
 23
0.000000
 33
0.000000
 40
0.000000
 40
0.000000
 40
0.000000
 40
0.000000
 40
1.000000
 40
1.000000
 40
1.000000
 40
1.000000
 10
150.013478
 20
491.136606
 30
0.000000
 10
149.140633
 20
491.135652
 30
0.000000
 10
148.268971
 20
491.369214
 30
0.000000
 10
147.513542
 20
491.806465
 30
0.000000
  0
SPLINE
  5
250
330
1F
100
AcDbEntity
  8
0
 62
     7
100
AcDbSpline
210
0.000000
220
0.000000
230
1.0
 70
     8
 71
     3
 72
     8
 73
     4
 42
0.0000000001
 43
0.0000000001
 44
0.0000000001
 12
0.000000
 22
0.000000
 32
0.000000
 13
0.000000
 23
0.000000
 33
0.000000
 40
0.000000
 40
0.000000
 40
0.000000
 40
0.000000
 40
1.000000
 40
1.000000
 40
1.000000
 40
1.000000
 10
147.513542
 20
491.806465
 30
0.000000
 10
146.757159
 20
492.242065
 30
0.000000
 10
146.119058
 20
492.880169
 30
0.000000
 10
145.683461
 20
493.636557
 30
0.000000
  0
SPLINE
  5
251
330
1F
100
AcDbEntity
  8
0
 62
     7
100
AcDbSpline
210
0.000000
220
0.000000
230
1.0
 70
     8
 71
     3
 72
     8
 73
     4
 42
0.0000000001
 43
0.0000000001
 44
0.0000000001
 12
0.000000
 22
0.000000
 32
0.000000
 13
0.000000
 23
0.000000
 33
0.000000
 40
0.000000
 40
0.000000
 40
0.000000
 40
0.000000
 40
1.000000
 40
1.000000
 40
1.000000
 40
1.000000
 10
145.683461
 20
493.636557
 30
0.000000
 10
145.246213
 20
494.391990
 30
0.000000
 10
145.012652
 20
495.263658
 30
0.000000
 10
145.013605
 20
496.136508
 30
0.000000
  0
SPLINE
  5
252
330
1F
100
AcDbEntity
  8
0
 62
     7
100
AcDbSpline
210
0.000000
220
0.000000
230
1.0
 70
     8
 71
     3
 72
     8
 73
     4
 42
0.0000000001
 43
0.0000000001
 44
0.0000000001
 12
0.000000
 22
0.000000
 32
0.000000
 13
0.000000
 23
0.000000
 33
0.000000
 40
0.000000
 40
0.000000
 40
0.000000
 40
0.000000
 40
1.000000
 40
1.000000
 40
1.000000
 40
1.000000
 10
180.697969
 20
496.461510
 30
0.000000
 10
180.697015
 20
497.334361
 30
0.000000
 10
180.930577
 20
498.206028
 30
0.000000
 10
181.367825
 20
498.961462
 30
0.000000
  0
SPLINE
  5
253
330
1F
100
AcDbEntity
  8
0
 62
     7
100
AcDbSpline
210
0.000000
220
0.000000
230
1.0
 70
     8
 71
     3
 72
     8
 73
     4
 42
0.0000000001
 43
0.0000000001
 44
0.0000000001
 12
0.000000
 22
0.000000
 32
0.000000
 13
0.000000
 23
0.000000
 33
0.000000
 40
0.000000
 40
0.000000
 40
0.000000
 40
0.000000
 40
1.000000
 40
1.000000
 40
1.000000
 40
1.000000
 10
181.367825
 20
498.961462
 30
0.000000
 10
181.803421
 20
499.717849
 30
0.000000
 10
182.441522
 20
500.355954
 30
0.000000
 10
183.197905
 20
500.791553
 30
0.000000
  0
SPLINE
  5
254
330
1F
100
AcDbEntity
  8
0
 62
     7
100
AcDbSpline
210
0.000000
220
0.000000
230
1.0
 70
     8
 71
     3
 72
     8
 73
     4
 42
0.0000000001
 43
0.0000000001
 44
0.0000000001
 12
0.000000
 22
0.000000
 32
0.000000
 13
0.000000
 23
0.000000
 33
0.000000
 40
0.000000
 40
0.000000
 40
0.000000
 40
0.000000
 40
1.000000
 40
1.000000
 40
1.000000
 40
1.000000
 10
183.197905
 20
500.791553
 30
0.000000
 10
183.953334
 20
501.228804
 30
0.000000
 10
184.824996
 20
501.462367
 30
0.000000
 10
185.697841
 20
501.461413
 30
0.000000
  0
SPLINE
  5
255
330
1F
100
AcDbEntity
  8
0
 62
     7
100
AcDbSpline
210
0.000000
220
0.000000
230
1.0
 70
     8
 71
     3
 72
     8
 73
     4
 42
0.0000000001
 43
0.0000000001
 44
0.0000000001
 12
0.000000
 22
0.000000
 32
0.000000
 13
0.000000
 23
0.000000
 33
0.000000
 40
0.000000
 40
0.000000
 40
0.000000
 40
0.000000
 40
1.000000
 40
1.000000
 40
1.000000
 40
1.000000
 10
185.697841
 20
501.461413
 30
0.000000
 10
186.570686
 20
501.462367
 30
0.000000
 10
187.442348
 20
501.228804
 30
0.000000
 10
188.197777
 20
500.791553
 30
0.000000
  0
SPLINE
  5
256
330
1F
100
AcDbEntity
  8
0
 62
     7
100
AcDbSpline
210
0.000000
220
0.000000
230
1.0
 70
     8
 71
     3
 72
     8
 73
     4
 42
0.0000000001
 43
0.0000000001
 44
0.0000000001
 12
0.000000
 22
0.000000
 32
0.000000
 13
0.000000
 23
0.000000
 33
0.000000
 40
0.000000
 40
0.000000
 40
0.000000
 40
0.000000
 40
1.000000
 40
1.000000
 40
1.000000
 40
1.000000
 10
188.197777
 20
500.791553
 30
0.000000
 10
188.954160
 20
500.355954
 30
0.000000
 10
189.592261
 20
499.717849
 30
0.000000
 10
190.027858
 20
498.961462
 30
0.000000
  0
SPLINE
  5
257
330
1F
100
AcDbEntity
  8
0
 62
     7
100
AcDbSpline
210
0.000000
220
0.000000
230
1.0
 70
     8
 71
     3
 72
     8
 73
     4
 42
0.0000000001
 43
0.0000000001
 44
0.0000000001
 12
0.000000
 22
0.000000
 32
0.000000
 13
0.000000
 23
0.000000
 33
0.000000
 40
0.000000
 40
0.000000
 40
0.000000
 40
0.000000
 40
1.000000
 40
1.000000
 40
1.000000
 40
1.000000
 10
190.027858
 20
498.961462
 30
0.000000
 10
190.465106
 20
498.206028
 30
0.000000
 10
190.698667
 20
497.334361
 30
0.000000
 10
190.697713
 20
496.461510
 30
0.000000
  0
SPLINE
  5
258
330
1F
100
AcDbEntity
  8
0
 62
     7
100
AcDbSpline
210
0.000000
220
0.000000
230
1.0
 70
     8
 71
     3
 72
     8
 73
     4
 42
0.0000000001
 43
0.0000000001
 44
0.0000000001
 12
0.000000
 22
0.000000
 32
0.000000
 13
0.000000
 23
0.000000
 33
0.000000
 40
0.000000
 40
0.000000
 40
0.000000
 40
0.000000
 40
1.000000
 40
1.000000
 40
1.000000
 40
1.000000
 10
190.697713
 20
496.461510
 30
0.000000
 10
190.698667
 20
495.588660
 30
0.000000
 10
190.465106
 20
494.716993
 30
0.000000
 10
190.027858
 20
493.961559
 30
0.000000
  0
SPLINE
  5
259
330
1F
100
AcDbEntity
  8
0
 62
     7
100
AcDbSpline
210
0.000000
220
0.000000
230
1.0
 70
     8
 71
     3
 72
     8
 73
     4
 42
0.0000000001
 43
0.0000000001
 44
0.0000000001
 12
0.000000
 22
0.000000
 32
0.000000
 13
0.000000
 23
0.000000
 33
0.000000
 40
0.000000
 40
0.000000
 40
0.000000
 40
0.000000
 40
1.000000
 40
1.000000
 40
1.000000
 40
1.000000
 10
190.027858
 20
493.961559
 30
0.000000
 10
189.592261
 20
493.205172
 30
0.000000
 10
188.954160
 20
492.567067
 30
0.000000
 10
188.197777
 20
492.131468
 30
0.000000
  0
SPLINE
  5
260
330
1F
100
AcDbEntity
  8
0
 62
     7
100
AcDbSpline
210
0.000000
220
0.000000
230
1.0
 70
     8
 71
     3
 72
     8
 73
     4
 42
0.0000000001
 43
0.0000000001
 44
0.0000000001
 12
0.000000
 22
0.000000
 32
0.000000
 13
0.000000
 23
0.000000
 33
0.000000
 40
0.000000
 40
0.000000
 40
0.000000
 40
0.000000
 40
1.000000
 40
1.000000
 40
1.000000
 40
1.000000
 10
188.197777
 20
492.131468
 30
0.000000
 10
187.442348
 20
491.694217
 30
0.000000
 10
186.570686
 20
491.460654
 30
0.000000
 10
185.697841
 20
491.461608
 30
0.000000
  0
SPLINE
  5
261
330
1F
100
AcDbEntity
  8
0
 62
     7
100
AcDbSpline
210
0.000000
220
0.000000
230
1.0
 70
     8
 71
     3
 72
     8
 73
     4
 42
0.0000000001
 43
0.0000000001
 44
0.0000000001
 12
0.000000
 22
0.000000
 32
0.000000
 13
0.000000
 23
0.000000
 33
0.000000
 40
0.000000
 40
0.000000
 40
0.000000
 40
0.000000
 40
1.000000
 40
1.000000
 40
1.000000
 40
1.000000
 10
185.697841
 20
491.461608
 30
0.000000
 10
184.824996
 20
491.460654
 30
0.000000
 10
183.953334
 20
491.694217
 30
0.000000
 10
183.197905
 20
492.131468
 30
0.000000
  0
SPLINE
  5
262
330
1F
100
AcDbEntity
  8
0
 62
     7
100
AcDbSpline
210
0.000000
220
0.000000
230
1.0
 70
     8
 71
     3
 72
     8
 73
     4
 42
0.0000000001
 43
0.0000000001
 44
0.0000000001
 12
0.000000
 22
0.000000
 32
0.000000
 13
0.000000
 23
0.000000
 33
0.000000
 40
0.000000
 40
0.000000
 40
0.000000
 40
0.000000
 40
1.000000
 40
1.000000
 40
1.000000
 40
1.000000
 10
183.197905
 20
492.131468
 30
0.000000
 10
182.441522
 20
492.567067
 30
0.000000
 10
181.803421
 20
493.205172
 30
0.000000
 10
181.367825
 20
493.961559
 30
0.000000
  0
SPLINE
  5
263
330
1F
100
AcDbEntity
  8
0
 62
     7
100
AcDbSpline
210
0.000000
220
0.000000
230
1.0
 70
     8
 71
     3
 72
     8
 73
     4
 42
0.0000000001
 43
0.0000000001
 44
0.0000000001
 12
0.000000
 22
0.000000
 32
0.000000
 13
0.000000
 23
0.000000
 33
0.000000
 40
0.000000
 40
0.000000
 40
0.000000
 40
0.000000
 40
1.000000
 40
1.000000
 40
1.000000
 40
1.000000
 10
181.367825
 20
493.961559
 30
0.000000
 10
180.930577
 20
494.716993
 30
0.000000
 10
180.697015
 20
495.588660
 30
0.000000
 10
180.697969
 20
496.461510
 30
0.000000
  0
SPLINE
  5
264
330
1F
100
AcDbEntity
  8
0
 62
     7
100
AcDbSpline
210
0.000000
220
0.000000
230
1.0
 70
     8
 71
     3
 72
     8
 73
     4
 42
0.0000000001
 43
0.0000000001
 44
0.0000000001
 12
0.000000
 22
0.000000
 32
0.000000
 13
0.000000
 23
0.000000
 33
0.000000
 40
0.000000
 40
0.000000
 40
0.000000
 40
0.000000
 40
1.000000
 40
1.000000
 40
1.000000
 40
1.000000
 10
187.376543
 20
462.520307
 30
0.000000
 10
187.376352
 20
462.694877
 30
0.000000
 10
187.423064
 20
462.869210
 30
0.000000
 10
187.510514
 20
463.020297
 30
0.000000
  0
SPLINE
  5
265
330
1F
100
AcDbEntity
  8
0
 62
     7
100
AcDbSpline
210
0.000000
220
0.000000
230
1.0
 70
     8
 71
     3
 72
     8
 73
     4
 42
0.0000000001
 43
0.0000000001
 44
0.0000000001
 12
0.000000
 22
0.000000
 32
0.000000
 13
0.000000
 23
0.000000
 33
0.000000
 40
0.000000
 40
0.000000
 40
0.000000
 40
0.000000
 40
1.000000
 40
1.000000
 40
1.000000
 40
1.000000
 10
187.510514
 20
463.020297
 30
0.000000
 10
187.597633
 20
463.171575
 30
0.000000
 10
187.725254
 20
463.299196
 30
0.000000
 10
187.876530
 20
463.386315
 30
0.000000
  0
SPLINE
  5
266
330
1F
100
AcDbEntity
  8
0
 62
     7
100
AcDbSpline
210
0.000000
220
0.000000
230
1.0
 70
     8
 71
     3
 72
     8
 73
     4
 42
0.0000000001
 43
0.0000000001
 44
0.0000000001
 12
0.000000
 22
0.000000
 32
0.000000
 13
0.000000
 23
0.000000
 33
0.000000
 40
0.000000
 40
0.000000
 40
0.000000
 40
0.000000
 40
1.000000
 40
1.000000
 40
1.000000
 40
1.000000
 10
187.876530
 20
463.386315
 30
0.000000
 10
188.027616
 20
463.473766
 30
0.000000
 10
188.201948
 20
463.520478
 30
0.000000
 10
188.376517
 20
463.520287
 30
0.000000
  0
SPLINE
  5
267
330
1F
100
AcDbEntity
  8
0
 62
     7
100
AcDbSpline
210
0.000000
220
0.000000
230
1.0
 70
     8
 71
     3
 72
     8
 73
     4
 42
0.0000000001
 43
0.0000000001
 44
0.0000000001
 12
0.000000
 22
0.000000
 32
0.000000
 13
0.000000
 23
0.000000
 33
0.000000
 40
0.000000
 40
0.000000
 40
0.000000
 40
0.000000
 40
1.000000
 40
1.000000
 40
1.000000
 40
1.000000
 10
188.376517
 20
463.520287
 30
0.000000
 10
188.551086
 20
463.520478
 30
0.000000
 10
188.725419
 20
463.473766
 30
0.000000
 10
188.876505
 20
463.386315
 30
0.000000
  0
SPLINE
  5
268
330
1F
100
AcDbEntity
  8
0
 62
     7
100
AcDbSpline
210
0.000000
220
0.000000
230
1.0
 70
     8
 71
     3
 72
     8
 73
     4
 42
0.0000000001
 43
0.0000000001
 44
0.0000000001
 12
0.000000
 22
0.000000
 32
0.000000
 13
0.000000
 23
0.000000
 33
0.000000
 40
0.000000
 40
0.000000
 40
0.000000
 40
0.000000
 40
1.000000
 40
1.000000
 40
1.000000
 40
1.000000
 10
188.876505
 20
463.386315
 30
0.000000
 10
189.027781
 20
463.299196
 30
0.000000
 10
189.155401
 20
463.171575
 30
0.000000
 10
189.242521
 20
463.020297
 30
0.000000
  0
SPLINE
  5
269
330
1F
100
AcDbEntity
  8
0
 62
     7
100
AcDbSpline
210
0.000000
220
0.000000
230
1.0
 70
     8
 71
     3
 72
     8
 73
     4
 42
0.0000000001
 43
0.0000000001
 44
0.0000000001
 12
0.000000
 22
0.000000
 32
0.000000
 13
0.000000
 23
0.000000
 33
0.000000
 40
0.000000
 40
0.000000
 40
0.000000
 40
0.000000
 40
1.000000
 40
1.000000
 40
1.000000
 40
1.000000
 10
189.242521
 20
463.020297
 30
0.000000
 10
189.329970
 20
462.869210
 30
0.000000
 10
189.376682
 20
462.694877
 30
0.000000
 10
189.376492
 20
462.520307
 30
0.000000
  0
SPLINE
  5
270
330
1F
100
AcDbEntity
  8
0
 62
     7
100
AcDbSpline
210
0.000000
220
0.000000
230
1.0
 70
     8
 71
     3
 72
     8
 73
     4
 42
0.0000000001
 43
0.0000000001
 44
0.0000000001
 12
0.000000
 22
0.000000
 32
0.000000
 13
0.000000
 23
0.000000
 33
0.000000
 40
0.000000
 40
0.000000
 40
0.000000
 40
0.000000
 40
1.000000
 40
1.000000
 40
1.000000
 40
1.000000
 10
189.376492
 20
462.520307
 30
0.000000
 10
189.376682
 20
462.345737
 30
0.000000
 10
189.329970
 20
462.171403
 30
0.000000
 10
189.242521
 20
462.020317
 30
0.000000
  0
SPLINE
  5
271
330
1F
100
AcDbEntity
  8
0
 62
     7
100
AcDbSpline
210
0.000000
220
0.000000
230
1.0
 70
     8
 71
     3
 72
     8
 73
     4
 42
0.0000000001
 43
0.0000000001
 44
0.0000000001
 12
0.000000
 22
0.000000
 32
0.000000
 13
0.000000
 23
0.000000
 33
0.000000
 40
0.000000
 40
0.000000
 40
0.000000
 40
0.000000
 40
1.000000
 40
1.000000
 40
1.000000
 40
1.000000
 10
189.242521
 20
462.020317
 30
0.000000
 10
189.155401
 20
461.869039
 30
0.000000
 10
189.027781
 20
461.741418
 30
0.000000
 10
188.876505
 20
461.654298
 30
0.000000
  0
SPLINE
  5
272
330
1F
100
AcDbEntity
  8
0
 62
     7
100
AcDbSpline
210
0.000000
220
0.000000
230
1.0
 70
     8
 71
     3
 72
     8
 73
     4
 42
0.0000000001
 43
0.0000000001
 44
0.0000000001
 12
0.000000
 22
0.000000
 32
0.000000
 13
0.000000
 23
0.000000
 33
0.000000
 40
0.000000
 40
0.000000
 40
0.000000
 40
0.000000
 40
1.000000
 40
1.000000
 40
1.000000
 40
1.000000
 10
188.876505
 20
461.654298
 30
0.000000
 10
188.725419
 20
461.566848
 30
0.000000
 10
188.551086
 20
461.520136
 30
0.000000
 10
188.376517
 20
461.520326
 30
0.000000
  0
SPLINE
  5
273
330
1F
100
AcDbEntity
  8
0
 62
     7
100
AcDbSpline
210
0.000000
220
0.000000
230
1.0
 70
     8
 71
     3
 72
     8
 73
     4
 42
0.0000000001
 43
0.0000000001
 44
0.0000000001
 12
0.000000
 22
0.000000
 32
0.000000
 13
0.000000
 23
0.000000
 33
0.000000
 40
0.000000
 40
0.000000
 40
0.000000
 40
0.000000
 40
1.000000
 40
1.000000
 40
1.000000
 40
1.000000
 10
188.376517
 20
461.520326
 30
0.000000
 10
188.201948
 20
461.520136
 30
0.000000
 10
188.027616
 20
461.566848
 30
0.000000
 10
187.876530
 20
461.654298
 30
0.000000
  0
SPLINE
  5
274
330
1F
100
AcDbEntity
  8
0
 62
     7
100
AcDbSpline
210
0.000000
220
0.000000
230
1.0
 70
     8
 71
     3
 72
     8
 73
     4
 42
0.0000000001
 43
0.0000000001
 44
0.0000000001
 12
0.000000
 22
0.000000
 32
0.000000
 13
0.000000
 23
0.000000
 33
0.000000
 40
0.000000
 40
0.000000
 40
0.000000
 40
0.000000
 40
1.000000
 40
1.000000
 40
1.000000
 40
1.000000
 10
187.876530
 20
461.654298
 30
0.000000
 10
187.725254
 20
461.741418
 30
0.000000
 10
187.597633
 20
461.869039
 30
0.000000
 10
187.510514
 20
462.020317
 30
0.000000
  0
SPLINE
  5
275
330
1F
100
AcDbEntity
  8
0
 62
     7
100
AcDbSpline
210
0.000000
220
0.000000
230
1.0
 70
     8
 71
     3
 72
     8
 73
     4
 42
0.0000000001
 43
0.0000000001
 44
0.0000000001
 12
0.000000
 22
0.000000
 32
0.000000
 13
0.000000
 23
0.000000
 33
0.000000
 40
0.000000
 40
0.000000
 40
0.000000
 40
0.000000
 40
1.000000
 40
1.000000
 40
1.000000
 40
1.000000
 10
187.510514
 20
462.020317
 30
0.000000
 10
187.423064
 20
462.171403
 30
0.000000
 10
187.376352
 20
462.345737
 30
0.000000
 10
187.376543
 20
462.520307
 30
0.000000
  0
SPLINE
  5
276
330
1F
100
AcDbEntity
  8
0
 62
     7
100
AcDbSpline
210
0.000000
220
0.000000
230
1.0
 70
     8
 71
     3
 72
     8
 73
     4
 42
0.0000000001
 43
0.0000000001
 44
0.0000000001
 12
0.000000
 22
0.000000
 32
0.000000
 13
0.000000
 23
0.000000
 33
0.000000
 40
0.000000
 40
0.000000
 40
0.000000
 40
0.000000
 40
1.000000
 40
1.000000
 40
1.000000
 40
1.000000
 10
188.209061
 20
430.784180
 30
0.000000
 10
188.208871
 20
430.958750
 30
0.000000
 10
188.255583
 20
431.133083
 30
0.000000
 10
188.343032
 20
431.284170
 30
0.000000
  0
SPLINE
  5
277
330
1F
100
AcDbEntity
  8
0
 62
     7
100
AcDbSpline
210
0.000000
220
0.000000
230
1.0
 70
     8
 71
     3
 72
     8
 73
     4
 42
0.0000000001
 43
0.0000000001
 44
0.0000000001
 12
0.000000
 22
0.000000
 32
0.000000
 13
0.000000
 23
0.000000
 33
0.000000
 40
0.000000
 40
0.000000
 40
0.000000
 40
0.000000
 40
1.000000
 40
1.000000
 40
1.000000
 40
1.000000
 10
188.343032
 20
431.284170
 30
0.000000
 10
188.430152
 20
431.435447
 30
0.000000
 10
188.557772
 20
431.563068
 30
0.000000
 10
188.709049
 20
431.650188
 30
0.000000
  0
SPLINE
  5
278
330
1F
100
AcDbEntity
  8
0
 62
     7
100
AcDbSpline
210
0.000000
220
0.000000
230
1.0
 70
     8
 71
     3
 72
     8
 73
     4
 42
0.0000000001
 43
0.0000000001
 44
0.0000000001
 12
0.000000
 22
0.000000
 32
0.000000
 13
0.000000
 23
0.000000
 33
0.000000
 40
0.000000
 40
0.000000
 40
0.000000
 40
0.000000
 40
1.000000
 40
1.000000
 40
1.000000
 40
1.000000
 10
188.709049
 20
431.650188
 30
0.000000
 10
188.860134
 20
431.737638
 30
0.000000
 10
189.034467
 20
431.784351
 30
0.000000
 10
189.209036
 20
431.784160
 30
0.000000
  0
SPLINE
  5
279
330
1F
100
AcDbEntity
  8
0
 62
     7
100
AcDbSpline
210
0.000000
220
0.000000
230
1.0
 70
     8
 71
     3
 72
     8
 73
     4
 42
0.0000000001
 43
0.0000000001
 44
0.0000000001
 12
0.000000
 22
0.000000
 32
0.000000
 13
0.000000
 23
0.000000
 33
0.000000
 40
0.000000
 40
0.000000
 40
0.000000
 40
0.000000
 40
1.000000
 40
1.000000
 40
1.000000
 40
1.000000
 10
189.209036
 20
431.784160
 30
0.000000
 10
189.383605
 20
431.784351
 30
0.000000
 10
189.557937
 20
431.737638
 30
0.000000
 10
189.709023
 20
431.650188
 30
0.000000
  0
SPLINE
  5
280
330
1F
100
AcDbEntity
  8
0
 62
     7
100
AcDbSpline
210
0.000000
220
0.000000
230
1.0
 70
     8
 71
     3
 72
     8
 73
     4
 42
0.0000000001
 43
0.0000000001
 44
0.0000000001
 12
0.000000
 22
0.000000
 32
0.000000
 13
0.000000
 23
0.000000
 33
0.000000
 40
0.000000
 40
0.000000
 40
0.000000
 40
0.000000
 40
1.000000
 40
1.000000
 40
1.000000
 40
1.000000
 10
189.709023
 20
431.650188
 30
0.000000
 10
189.860299
 20
431.563068
 30
0.000000
 10
189.987920
 20
431.435447
 30
0.000000
 10
190.075039
 20
431.284170
 30
0.000000
  0
SPLINE
  5
281
330
1F
100
AcDbEntity
  8
0
 62
     7
100
AcDbSpline
210
0.000000
220
0.000000
230
1.0
 70
     8
 71
     3
 72
     8
 73
     4
 42
0.0000000001
 43
0.0000000001
 44
0.0000000001
 12
0.000000
 22
0.000000
 32
0.000000
 13
0.000000
 23
0.000000
 33
0.000000
 40
0.000000
 40
0.000000
 40
0.000000
 40
0.000000
 40
1.000000
 40
1.000000
 40
1.000000
 40
1.000000
 10
190.075039
 20
431.284170
 30
0.000000
 10
190.162489
 20
431.133083
 30
0.000000
 10
190.209201
 20
430.958750
 30
0.000000
 10
190.209010
 20
430.784180
 30
0.000000
  0
SPLINE
  5
282
330
1F
100
AcDbEntity
  8
0
 62
     7
100
AcDbSpline
210
0.000000
220
0.000000
230
1.0
 70
     8
 71
     3
 72
     8
 73
     4
 42
0.0000000001
 43
0.0000000001
 44
0.0000000001
 12
0.000000
 22
0.000000
 32
0.000000
 13
0.000000
 23
0.000000
 33
0.000000
 40
0.000000
 40
0.000000
 40
0.000000
 40
0.000000
 40
1.000000
 40
1.000000
 40
1.000000
 40
1.000000
 10
190.209010
 20
430.784180
 30
0.000000
 10
190.209201
 20
430.609610
 30
0.000000
 10
190.162489
 20
430.435276
 30
0.000000
 10
190.075039
 20
430.284189
 30
0.000000
  0
SPLINE
  5
283
330
1F
100
AcDbEntity
  8
0
 62
     7
100
AcDbSpline
210
0.000000
220
0.000000
230
1.0
 70
     8
 71
     3
 72
     8
 73
     4
 42
0.0000000001
 43
0.0000000001
 44
0.0000000001
 12
0.000000
 22
0.000000
 32
0.000000
 13
0.000000
 23
0.000000
 33
0.000000
 40
0.000000
 40
0.000000
 40
0.000000
 40
0.000000
 40
1.000000
 40
1.000000
 40
1.000000
 40
1.000000
 10
190.075039
 20
430.284189
 30
0.000000
 10
189.987920
 20
430.132912
 30
0.000000
 10
189.860299
 20
430.005291
 30
0.000000
 10
189.709023
 20
429.918171
 30
0.000000
  0
SPLINE
  5
284
330
1F
100
AcDbEntity
  8
0
 62
     7
100
AcDbSpline
210
0.000000
220
0.000000
230
1.0
 70
     8
 71
     3
 72
     8
 73
     4
 42
0.0000000001
 43
0.0000000001
 44
0.0000000001
 12
0.000000
 22
0.000000
 32
0.000000
 13
0.000000
 23
0.000000
 33
0.000000
 40
0.000000
 40
0.000000
 40
0.000000
 40
0.000000
 40
1.000000
 40
1.000000
 40
1.000000
 40
1.000000
 10
189.709023
 20
429.918171
 30
0.000000
 10
189.557937
 20
429.830721
 30
0.000000
 10
189.383605
 20
429.784008
 30
0.000000
 10
189.209036
 20
429.784199
 30
0.000000
  0
SPLINE
  5
285
330
1F
100
AcDbEntity
  8
0
 62
     7
100
AcDbSpline
210
0.000000
220
0.000000
230
1.0
 70
     8
 71
     3
 72
     8
 73
     4
 42
0.0000000001
 43
0.0000000001
 44
0.0000000001
 12
0.000000
 22
0.000000
 32
0.000000
 13
0.000000
 23
0.000000
 33
0.000000
 40
0.000000
 40
0.000000
 40
0.000000
 40
0.000000
 40
1.000000
 40
1.000000
 40
1.000000
 40
1.000000
 10
189.209036
 20
429.784199
 30
0.000000
 10
189.034467
 20
429.784008
 30
0.000000
 10
188.860134
 20
429.830721
 30
0.000000
 10
188.709049
 20
429.918171
 30
0.000000
  0
SPLINE
  5
286
330
1F
100
AcDbEntity
  8
0
 62
     7
100
AcDbSpline
210
0.000000
220
0.000000
230
1.0
 70
     8
 71
     3
 72
     8
 73
     4
 42
0.0000000001
 43
0.0000000001
 44
0.0000000001
 12
0.000000
 22
0.000000
 32
0.000000
 13
0.000000
 23
0.000000
 33
0.000000
 40
0.000000
 40
0.000000
 40
0.000000
 40
0.000000
 40
1.000000
 40
1.000000
 40
1.000000
 40
1.000000
 10
188.709049
 20
429.918171
 30
0.000000
 10
188.557772
 20
430.005291
 30
0.000000
 10
188.430152
 20
430.132912
 30
0.000000
 10
188.343032
 20
430.284189
 30
0.000000
  0
SPLINE
  5
287
330
1F
100
AcDbEntity
  8
0
 62
     7
100
AcDbSpline
210
0.000000
220
0.000000
230
1.0
 70
     8
 71
     3
 72
     8
 73
     4
 42
0.0000000001
 43
0.0000000001
 44
0.0000000001
 12
0.000000
 22
0.000000
 32
0.000000
 13
0.000000
 23
0.000000
 33
0.000000
 40
0.000000
 40
0.000000
 40
0.000000
 40
0.000000
 40
1.000000
 40
1.000000
 40
1.000000
 40
1.000000
 10
188.343032
 20
430.284189
 30
0.000000
 10
188.255583
 20
430.435276
 30
0.000000
 10
188.208871
 20
430.609610
 30
0.000000
 10
188.209061
 20
430.784180
 30
0.000000
 0
ENDSEC
  0
SECTION
  2
OBJECTS
  0
DICTIONARY
  5
C
330
0
100
AcDbDictionary
  3
ACAD_GROUP
350
D
  3
ACAD_LAYOUT
350
1A
  3
ACAD_MLINESTYLE
350
17
  3
ACAD_PLOTSETTINGS
350
19
1001
ACAD
1000
TREAT_AS_HARD
1070
     0
  0
DICTIONARY
  5
46
330
1F
100
AcDbDictionary
  3
ACAD_LAYOUTSELFREF
350
47
  0
DICTIONARY
  5
44
330
1B
100
AcDbDictionary
  3
ACAD_LAYOUTSELFREF
350
45
  0
DICTIONARY
  5
D
102
{ACAD_REACTORS
330
C
102
}
330
C
100
AcDbDictionary
1001
ACAD
1000
TREAT_AS_HARD
1070
     0
  0
DICTIONARY
  5
1A
102
{ACAD_REACTORS
330
C
102
}
330
C
100
AcDbDictionary
1001
ACAD
1000
TREAT_AS_HARD
1070
     0
  0
DICTIONARY
  5
17
102
{ACAD_REACTORS
330
C
102
}
330
C
100
AcDbDictionary
  3
STANDARD
350
18
1001
ACAD
1000
TREAT_AS_HARD
1070
     0
  0
DICTIONARY
  5
19
102
{ACAD_REACTORS
330
C
102
}
330
C
100
AcDbDictionary
1001
ACAD
1000
TREAT_AS_HARD
1070
     0
  0
XRECORD
  5
47
102
{ACAD_REACTORS
330
46
102
}
330
46
100
AcDbXrecord
340
1F
  0
XRECORD
  5
45
102
{ACAD_REACTORS
330
44
102
}
330
44
100
AcDbXrecord
340
1B
  0
MLINESTYLE
  5
18
102
{ACAD_REACTORS
330
17
102
}
330
17
100
AcDbMlineStyle
  2
STANDARD
 70
     0
  3

 62
   256
 51
90.0
 52
90.0
 71
     2
 49
0.5
 62
   256
  6
BYLAYER
 49
-0.5
 62
   256
  6
BYLAYER
  0
ENDSEC
  0
EOF
